<mxfile host="app.diagrams.net" modified="2024-05-03T11:48:14.944Z" agent="Mozilla/5.0 (Windows NT 10.0; Win64; x64) AppleWebKit/537.36 (KHTML, like Gecko) Chrome/123.0.0.0 Safari/537.36 OPR/109.0.0.0" version="24.3.1" etag="BEtwnAGBvsmP5yYy60Ty" type="github">
  <diagram name="Page-1" id="PBbz-HSkxMMJpDlwx3Ac">
    <mxGraphModel>
      <root>
        <mxCell id="0" />
        <mxCell id="1" parent="0" />
      </root>
    </mxGraphModel>
  </diagram>
</mxfile>
